<svg xmlns="http://www.w3.org/2000/svg" viewBox="0 0 31.57 31.57"><defs><style>.cls-1{fill:#ff4545;}</style></defs><title>cintoAtivo 6</title><g id="Camada_2" data-name="Camada 2"><g id="Camada_1-2" data-name="Camada 1"><path class="cls-1" d="M17.91,26.74a.93.93,0,0,0,1.31,0l2.36-2.37v.35a.93.93,0,1,0,1.85,0V22.13a.93.93,0,0,0-.93-.92H19.91a.93.93,0,0,0,0,1.85h.36l-2.36,2.37A.93.93,0,0,0,17.91,26.74Z"/><path class="cls-1" d="M14.29.27,11.9,2.64V2.28a.93.93,0,0,0-1.85,0V4.87A.93.93,0,0,0,11,5.8h2.59a.93.93,0,1,0,0-1.85h-.35L15.6,1.58A.93.93,0,1,0,14.29.27Z"/><path class="cls-1" d="M14.33,26.39a.93.93,0,0,0,0-1.31L6.48,17.24a.9.9,0,0,0-1.3,0l-.66.65a1.85,1.85,0,0,0,0,2.61L11.06,27a1.84,1.84,0,0,0,2.62,0Z"/><path class="cls-1" d="M24.76.27,21.11,3.92a4,4,0,0,1,.72.58l5.23,5.23a4.9,4.9,0,0,1,.59.72l3.64-3.64a.91.91,0,0,0,0-1.31L26.06.27a.92.92,0,0,0-1.3,0Z"/><path class="cls-1" d="M25.75,11,20.52,5.81a2.78,2.78,0,0,0-3.92,0L14,8.43a.92.92,0,0,0,0,1.3l7.85,7.85a.93.93,0,0,0,1.31,0L25.75,15a2.77,2.77,0,0,0,0-3.93Zm-3.26,2a.93.93,0,0,1-1.31,0l-2.62-2.61a.93.93,0,1,1,1.31-1.31l2.62,2.62A.92.92,0,0,1,22.49,13Z"/><path class="cls-1" d="M16.6,20.2a.93.93,0,0,1,0-1.31l1.31-1.31a.93.93,0,0,0,0-1.31l-2.62-2.61a.93.93,0,0,0-1.31,0L12.68,15a.93.93,0,0,1-1.31,0,.91.91,0,0,0-1.31,0L8.44,16.58,15,23.12,16.6,21.5a.92.92,0,0,0,0-1.3Z"/><path class="cls-1" d="M3.21,21.81l-2.94,3a.92.92,0,0,0,0,1.3L5.5,31.29a.91.91,0,0,0,1.31,0l2.94-2.94Z"/></g></g></svg>