<svg id="Camada_1" data-name="Camada 1" xmlns="http://www.w3.org/2000/svg" viewBox="0 0 76.24 11.29"><defs><style>.cls-1{fill:#fff;isolation:isolate;opacity:0.8;}.cls-2{fill:#e85454;}</style></defs><path class="cls-1" d="M1.88.07l.59.07A.46.46,0,0,1,2.92.6L1.69,7.3c0,.2-.35.36-.64.32l-.6-.07A.46.46,0,0,1,0,7.09L1.23.39C1.27.09,1.58,0,1.88.07Z"/><path class="cls-1" d="M4.7.07l.6.07A.46.46,0,0,1,5.75.6L4.52,7.3c0,.2-.35.36-.65.32l-.59-.07a.46.46,0,0,1-.45-.46L4.06.39C4.09.09,4.4,0,4.7.07Z"/><path class="cls-1" d="M7.62.07l.6.07A.46.46,0,0,1,8.67.6L7.44,7.3c0,.2-.35.36-.65.32L6.2,7.55a.46.46,0,0,1-.45-.46L7,.39C7,.09,7.33,0,7.62.07Z"/><path class="cls-1" d="M13.46.07l.6.07a.46.46,0,0,1,.45.46L13.28,7.3c0,.2-.35.36-.65.32L12,7.55a.46.46,0,0,1-.45-.46L12.82.39C12.86.09,13.17,0,13.46.07Z"/><path class="cls-1" d="M16.21.07l.59.07a.46.46,0,0,1,.45.46L16,7.3c0,.2-.35.36-.64.32l-.6-.07a.46.46,0,0,1-.45-.46L15.56.39C15.6.09,15.91,0,16.21.07Z"/><path class="cls-1" d="M10.31.17l.59.07a.46.46,0,0,1,.45.46L10.12,7.4c0,.2-.34.36-.64.33l-.6-.08a.46.46,0,0,1-.45-.46L9.66.49C9.7.2,10,.13,10.31.17Z"/><path class="cls-1" d="M19.13.14l.59.07a.46.46,0,0,1,.45.46l-1.23,6.7c0,.2-.34.36-.64.32l-.6-.07a.46.46,0,0,1-.45-.46L18.48.46C18.52.16,18.83.1,19.13.14Z"/><path class="cls-1" d="M21.87.14l.6.07a.45.45,0,0,1,.44.46l-1.22,6.7c0,.2-.35.36-.65.32l-.59-.07c-.3,0-.48-.26-.45-.46L21.23.46C21.26.16,21.57.1,21.87.14Z"/><path class="cls-1" d="M24.79.14l.6.07a.45.45,0,0,1,.44.46l-1.22,6.7c0,.2-.35.36-.65.32l-.59-.07c-.3,0-.48-.26-.45-.46L24.15.46C24.18.16,24.49.1,24.79.14Z"/><path class="cls-1" d="M27.71.07l.6.07a.45.45,0,0,1,.44.46L27.53,7.3c0,.2-.35.36-.65.32l-.59-.07c-.3,0-.48-.26-.45-.46L27.07.39C27.1.09,27.41,0,27.71.07Z"/><path class="cls-1" d="M30.63.07l.6.07a.45.45,0,0,1,.44.46L30.45,7.3c0,.2-.35.36-.65.32l-.59-.07c-.3,0-.48-.26-.45-.46L30,.39C30,.09,30.33,0,30.63.07Z"/><path class="cls-1" d="M33.45.07l.6.07A.46.46,0,0,1,34.5.6L33.27,7.3c0,.2-.35.36-.65.32L32,7.55a.46.46,0,0,1-.45-.46L32.81.39C32.84.09,33.15,0,33.45.07Z"/><path class="cls-1" d="M36.33.1l.6.08a.46.46,0,0,1,.45.45l-1.23,6.7c0,.2-.35.36-.65.33l-.59-.08a.46.46,0,0,1-.45-.45L35.69.43C35.72.13,36,.07,36.33.1Z"/><path class="cls-1" d="M42.17.1l.6.08a.46.46,0,0,1,.45.45L42,7.33c0,.2-.35.36-.65.33l-.59-.08a.46.46,0,0,1-.45-.45L41.53.43C41.57.13,41.88.07,42.17.1Z"/><path class="cls-1" d="M44.92.1l.59.08A.46.46,0,0,1,46,.63l-1.23,6.7c0,.2-.35.36-.64.33l-.6-.08A.46.46,0,0,1,43,7.13L44.27.43C44.31.13,44.62.07,44.92.1Z"/><path class="cls-1" d="M39.11.07l.59.07a.46.46,0,0,1,.45.46L38.92,7.3c0,.2-.34.36-.64.32l-.6-.07a.46.46,0,0,1-.45-.46L38.46.39C38.5.09,38.81,0,39.11.07Z"/><path class="cls-1" d="M47.84.17l.59.07a.46.46,0,0,1,.45.46L47.65,7.4c0,.2-.35.36-.64.33l-.6-.08A.46.46,0,0,1,46,7.19L47.19.49C47.23.2,47.54.13,47.84.17Z"/><path class="cls-1" d="M50.58.17l.6.07a.45.45,0,0,1,.44.46L50.4,7.4c0,.2-.35.36-.65.33l-.59-.08a.45.45,0,0,1-.45-.46L49.94.49C50,.2,50.28.13,50.58.17Z"/><path class="cls-1" d="M53.5.17l.6.07a.45.45,0,0,1,.44.46L53.32,7.4c0,.2-.35.36-.65.33l-.59-.08a.45.45,0,0,1-.45-.46L52.86.49C52.89.2,53.2.13,53.5.17Z"/><path class="cls-1" d="M56.42.1l.6.08a.45.45,0,0,1,.44.45l-1.22,6.7c0,.2-.35.36-.65.33L55,7.58a.45.45,0,0,1-.45-.45L55.78.43C55.81.13,56.12.07,56.42.1Z"/><path class="cls-1" d="M59.34.1l.6.08a.45.45,0,0,1,.44.45l-1.22,6.7c0,.2-.35.36-.65.33l-.59-.08a.45.45,0,0,1-.45-.45L58.7.43C58.73.13,59,.07,59.34.1Z"/><path class="cls-1" d="M62.16.1l.6.08a.46.46,0,0,1,.45.45L62,7.33c0,.2-.35.36-.65.33l-.59-.08a.46.46,0,0,1-.45-.45L61.52.43C61.55.13,61.86.07,62.16.1Z"/><path class="cls-2" d="M64.67,0l.59.07a.57.57,0,0,1,.43.65l-1.64,10a.63.63,0,0,1-.66.51l-.6-.07a.55.55,0,0,1-.42-.65L64,.52A.54.54,0,0,1,64.67,0Z"/><path class="cls-2" d="M67.22,0l.6.07a.57.57,0,0,1,.42.66l-1.63,10a.64.64,0,0,1-.67.52l-.6-.07a.56.56,0,0,1-.42-.65l1.63-10A.55.55,0,0,1,67.22,0Z"/><path class="cls-2" d="M69.87,0l.59.07a.55.55,0,0,1,.42.65l-1.63,10a.63.63,0,0,1-.67.51L68,11.18a.56.56,0,0,1-.43-.65L69.2.55A.54.54,0,0,1,69.87,0Z"/><path class="cls-2" d="M72.51.05l.6.08a.55.55,0,0,1,.42.65l-1.63,10a.64.64,0,0,1-.67.52l-.6-.07a.56.56,0,0,1-.42-.65l1.63-10A.56.56,0,0,1,72.51.05Z"/><path class="cls-2" d="M75.22.07l.6.07a.56.56,0,0,1,.42.65l-1.63,10a.66.66,0,0,1-.67.52l-.6-.08a.55.55,0,0,1-.42-.65l1.63-10A.54.54,0,0,1,75.22.07Z"/></svg>