<svg id="Camada_1" data-name="Camada 1" xmlns="http://www.w3.org/2000/svg" viewBox="0 0 32.24 32.24"><defs><style>.cls-1{fill:#ffd000;}</style></defs><path class="cls-1" d="M20.13,1.1A1.34,1.34,0,0,0,18.81,0C8.44,0,0,7.23,0,16.12S8.44,32.24,18.81,32.24a1.34,1.34,0,0,0,1.32-1.1l.14-.76a83.07,83.07,0,0,0,0-28.53Z"/><path class="cls-1" d="M23.49,9.21l6.72,4a1.31,1.31,0,0,0,.69.19,1.34,1.34,0,0,0,.69-2.49l-6.72-4a1.34,1.34,0,0,0-1.38,2.3Z"/><path class="cls-1" d="M31.59,19l-6.72-4a1.34,1.34,0,1,0-1.38,2.3l6.72,4a1.31,1.31,0,0,0,.69.19A1.34,1.34,0,0,0,31.59,19Z"/><path class="cls-1" d="M31.59,27.06l-6.72-4a1.34,1.34,0,1,0-1.38,2.3l6.72,4a1.31,1.31,0,0,0,.69.19,1.34,1.34,0,0,0,.69-2.49Z"/></svg>