<?xml version="1.0" encoding="utf-8"?>
<!-- Generator: Adobe Illustrator 24.0.1, SVG Export Plug-In . SVG Version: 6.00 Build 0)  -->
<svg version="1.1" id="Camada_1" xmlns="http://www.w3.org/2000/svg" xmlns:xlink="http://www.w3.org/1999/xlink" x="0px" y="0px"
	 viewBox="0 0 390.1 151.3" style="enable-background:new 0 0 390.1 151.3;" xml:space="preserve">
<style type="text/css">
	.st0{display:none;opacity:0.3;enable-background:new    ;}
	.st1{display:none;fill:none;}
	.st2{display:none;fill:#F2F2F2;enable-background:new    ;}
	.st3{font-family:'Teko-Medium';}
	.st4{font-size:36px;}
	.st5{fill:#4AF2FF;}
	.st6{fill:#FF8100;}
	.st7{fill:#A9A9A9;}
	.st8{fill:#FF1F0A;}
	.st9{display:none;fill:#353535;}
</style>
<rect x="-84.5" class="st0" width="594.5" height="151.3"/>
<title>fundo</title>
<rect x="404.2" y="98" class="st1" width="742.3" height="305"/>
<text transform="matrix(1 0 0 1 404.215 122.0835)" class="st2 st3 st4">100%</text>
<rect x="266.2" y="98" class="st1" width="742.3" height="305"/>
<text transform="matrix(1 0 0 1 266.215 122.0835)" class="st2 st3 st4">100%</text>
<rect x="128.2" y="98" class="st1" width="742.3" height="305"/>
<text transform="matrix(1 0 0 1 128.215 122.0835)" class="st2 st3 st4">100%</text>
<rect x="-27.5" y="98" class="st1" width="742.3" height="305"/>
<text transform="matrix(1 0 0 1 -27.5 122.0835)" class="st2 st3 st4">100%</text>
<path class="st5" d="M277.1,13.3c-5.9,0-10.8,4.5-11.4,10.3h-8c-0.7,0-1.2,0.6-1.2,1.3l0,0c0,0.7,0.6,1.2,1.2,1.2l0,0h16.5l-7.2,7.2
	c-1.5,0.7-3.3,0.7-4.9,0c-2.3-1.3-5.1-1.3-7.4,0c-1.6,0.8-3.4,0.8-4.9,0c-1.5-0.9-3.2-1.2-4.9-0.9l-4.6-6.2h6.5
	c0.7,0,1.2-0.6,1.2-1.2l0,0c0-0.7-0.6-1.2-1.2-1.2l0,0h-8.3l-6.6-8.9c-0.4-0.6-1.1-0.7-1.6-0.4l0,0l0,0c-0.6,0.4-0.7,1.1-0.3,1.7
	l0,0l5.5,7.4h-8.1c-0.5,0-0.9,0.3-1.1,0.7c-0.2,0.4-0.1,1,0.3,1.3L236,35l0,0l7.9,7.9l2.5,5.8c0.4,1.6,2,2.7,3.7,2.5h1.2v14.5
	l-10.8,8.1c-0.5,0.4-0.6,1.2-0.2,1.7c0.2,0.3,0.6,0.5,1,0.5h22.2c0.5,0,1-0.3,1.2-0.8c0.1-0.5,0-1-0.4-1.4l-10.8-8.1V51.4h1.2
	c1.7,0.1,3.2-0.9,3.7-2.5l2.5-5.8l7.9-7.9l0,0l1.3-1.3c2,1.7,4.6,2.6,7.2,2.6c6.3,0,11.5-5.2,11.5-11.5s-5.2-11.5-11.5-11.5l0,0
	C277.1,13.4,277.1,13.3,277.1,13.3z M237.4,33.2l-7.2-7.2h7l5.2,7.1l0,0c-1.5,0.7-3.3,0.7-4.8,0L237.4,33.2z M259.7,73.5h-15.1
	l7.4-5.7L259.7,73.5z M256,47.8c-0.4,0.9-0.5,1-1.4,1h-4.8c-0.9,0-1,0-1.4-1l-1.8-4.3h11.1L256,47.8z M259.2,41h-13.8l-4.9-4.9
	c1.1-0.1,2.2-0.4,3.1-0.9c1.6-0.8,3.4-0.8,5,0c2.3,1.3,5.1,1.3,7.4,0c1.6-0.8,3.4-0.8,4.9,0c1,0.6,2,0.9,3.2,0.9L259.2,41z
	 M268.1,23.6c0.2-1.6,0.8-3,1.8-4.3l4.3,4.3C274.2,23.6,268.1,23.6,268.1,23.6z M275.9,33.8c-1.5-0.2-3-0.9-4.2-1.8l4.2-4.3V33.8z
	 M275.9,21.8l-4.2-4.2c1.2-1,2.7-1.6,4.2-1.8V21.8z M286.1,23.6h-6l4.3-4.3c1,1.2,1.7,2.7,1.9,4.3C286.3,23.6,286.1,23.6,286.1,23.6
	z M278.3,15.8c1.6,0.2,3,0.8,4.3,1.8l-4.3,4.2V15.8z M278.3,33.8v-6.1l4.3,4.3C281.4,32.9,279.9,33.6,278.3,33.8L278.3,33.8z
	 M284.3,30.3L280,26h6.2C286,27.6,285.4,29.1,284.3,30.3L284.3,30.3z"/>
<path class="st5" d="M251,24.7L251,24.7c0.7,0,1.3-0.6,1.3-1.3l0,0c0-0.7-0.6-1.3-1.3-1.3s-1.3,0.6-1.3,1.3S250.3,24.7,251,24.7
	L251,24.7z"/>
<path class="st6" d="M339.4,41.1c1-0.2,1.7-1,1.5-2l0,0c-0.1-0.7-0.7-1.3-1.5-1.5l0,0c-0.9,0.1-1.6,1-1.5,2c0,0,0,0,0,0.1
	C338,40.4,338.6,41,339.4,41.1z"/>
<path class="st6" d="M385.3,53h-1.9c0.2-0.5,0.3-1,0.3-1.6v-2.9c0-0.5-0.1-1.1-0.3-1.6h1.8c2.7,0,4.8-2.2,4.8-4.8
	c0-2.7-2.2-4.8-4.8-4.8h-1.8c0.2-0.5,0.3-1.1,0.3-1.6c-0.3-5.9-3.6-11.3-8.8-14.2c-12.6-7.4-28.3-7.4-40.9,0
	c-5.2,2.9-8.5,8.3-8.8,14.2c0,0.5,0.1,1.1,0.3,1.6h-1.8c-2.7,0-4.8,2.2-4.8,4.8c0,2.7,2.2,4.8,4.8,4.8l0,0h1.8
	c-0.2,0.5-0.3,1.1-0.3,1.6v2.9c0,0.5,0.1,1.1,0.3,1.6h-1.8c-2.7,0.2-4.7,2.6-4.4,5.3c0.2,2.3,2.1,4.2,4.4,4.4h1.6v4.9
	c0,0.5,0,1,0,1.4c0.1,0.7,0.4,1.4,0.7,2.1l0,0c0.2,0.4,0.4,0.8,0.7,1.2l0,0c1.4,2.1,3.9,3.4,6.4,3.2h43c2.6,0.1,5-1.1,6.4-3.2l0,0
	c0.4-0.5,0.7-1.2,1-1.8c0.1-0.4,0.2-0.8,0.4-1.1c0.1-0.6,0.2-1.3,0.2-1.9v-4.8h1.6c2.7-0.3,4.7-2.6,4.4-5.3
	C389.6,55,387.7,53.2,385.3,53L385.3,53z M323.7,43.7c-0.9,0-1.6-0.7-1.6-1.6c0-0.9,0.7-1.6,1.6-1.6h9.3c0.9-0.1,1.5-0.9,1.4-1.8
	l0,0c-0.1-0.7-0.6-1.3-1.4-1.5h-3.1c-0.9,0-1.6-0.7-1.6-1.6l0,0l0,0c0.3-4.8,3.1-9.2,7.4-11.5c11.6-6.7,26-6.7,37.6,0
	c4.2,2.3,6.9,6.7,7.2,11.5c0,0.9-0.7,1.6-1.6,1.6l0,0h-32.4c-0.9,0.1-1.5,0.9-1.4,1.8c0,0,0,0,0,0.1c0.1,0.7,0.6,1.3,1.4,1.4h38.8
	c0.9,0,1.6,0.7,1.6,1.6c0,0.9-0.7,1.6-1.6,1.6h-6.2c-1.7,0-3.4,0.5-4.9,1.4c-2,1.4-4.7,1.4-6.7,0c-3-1.9-6.8-1.9-9.7,0
	c-2,1.4-4.7,1.4-6.7,0c-3-1.9-6.8-1.9-9.7,0c-2,1.4-4.7,1.4-6.7,0c-1.4-1-3.1-1.5-4.9-1.4H323.7z M380.7,48.5v2.9
	c0,0.9-0.7,1.6-1.6,1.6h-49.3c-0.9,0-1.5-0.7-1.6-1.6v-2.9c0-0.8,0.6-1.6,1.5-1.6c0,0,0,0,0.1,0l0,0c1.2,0,2.4,0.4,3.4,1
	c3,1.9,6.8,1.9,9.7,0c1-0.7,2.2-1.1,3.4-1c1.2,0,2.4,0.4,3.4,1c1.4,0.9,3.1,1.5,4.9,1.5c1.7,0,3.4-0.5,4.9-1.5c1-0.7,2.2-1.1,3.4-1
	c1.2,0,2.4,0.3,3.4,1c1.4,0.9,3.1,1.5,4.9,1.5c1.7,0,3.4-0.5,4.9-1.5c1-0.7,2.2-1.1,3.4-1C380,46.9,380.7,47.6,380.7,48.5
	L380.7,48.5z M385.3,59.3h-6.2c-0.9,0.1-1.5,0.9-1.4,1.8c0,0,0,0,0,0.1c0.1,0.7,0.6,1.3,1.4,1.4h1.6v4.9c0.1,2.6-1.9,4.8-4.5,5
	h-43.3c-2.6-0.1-4.7-2.2-4.7-4.8v-4.9h37.1c0.9-0.1,1.5-0.9,1.4-1.8l0,0c-0.1-0.7-0.7-1.2-1.4-1.3h-41.7c-0.9,0-1.6-0.8-1.6-1.6l0,0
	l0,0c0-0.9,0.6-1.6,1.5-1.6c0,0,0,0,0.1,0h61.6c0.9,0,1.6,0.7,1.6,1.6c0,0,0,0,0,0.1l0,0c0,0.9-0.7,1.6-1.6,1.6l0,0l0,0
	C385.3,59.5,385.3,59.3,385.3,59.3z"/>
<path class="st6" d="M364,28.7c1,0,1.8-0.7,1.9-1.7c0-1-0.8-1.8-1.8-1.8s-1.8,0.8-1.8,1.8l0,0l0,0C362.3,27.9,363.1,28.7,364,28.7z"
	/>
<path class="st6" d="M356,32.2c1,0,1.8-0.8,1.8-1.8s-0.8-1.8-1.8-1.8l0,0c-0.9,0-1.7,0.7-1.7,1.7c0,0,0,0,0,0.1l0,0
	C354.3,31.4,355.1,32.2,356,32.2L356,32.2z"/>
<path class="st6" d="M344.8,28.5c1,0,1.8-0.8,1.8-1.8s-0.8-1.8-1.8-1.8c-0.9,0-1.7,0.7-1.7,1.7c0,0,0,0,0,0.1l0,0
	C343,27.7,343.8,28.5,344.8,28.5L344.8,28.5z"/>
<path class="st6" d="M374.7,61.9L374.7,61.9c-0.9,0.1-1.6,1-1.5,1.9c0,0,0,0,0,0.1c0,0.9,0.7,1.5,1.6,1.5s1.5-0.7,1.5-1.6
	c0-0.2,0-0.3-0.1-0.4C376.1,62.6,375.5,62,374.7,61.9z"/>
<g>
	<path class="st7" d="M172.3,68H170c-2.5-0.1-4.4-2.1-4.6-4.6l0,0v-3.2c0.1-2.5,2.1-4.4,4.6-4.6h2.2V54H170
		c-2.5-0.1-4.4-2.1-4.6-4.6l0,0v-3.2c0.1-2.5,2.1-4.4,4.6-4.6h2.2v-0.7c0-0.6-0.2-1.2-0.5-1.8l-2.1-3.8c-1.8-3.2-2.3-6.9-1.3-10.5
		l1.1-4.1c0.3-1-0.2-2-1.1-2.3l-12.6-4.9c-0.5-0.3-1.1-0.3-1.6,0l-2,1.4c-3.2,2.2-7.5,2.2-10.6,0l-2-1.3c-0.5-0.3-1.1-0.3-1.6,0
		l-12.7,4.9c-0.9,0.4-1.4,1.4-1.1,2.3l1.1,4.1c0.9,3.5,0.5,7.3-1.3,10.5l-2.1,3.8c-0.3,0.5-0.5,1.1-0.5,1.8v0.6h2.3
		c2.5,0.1,4.4,2.1,4.6,4.6v3.2c-0.1,2.5-2.1,4.4-4.6,4.6h-2.4v1.6h2.4c2.5,0.1,4.4,2.1,4.6,4.6v3.2c-0.1,2.5-2.1,4.4-4.6,4.6h-2.5
		v6.1c0,0.7,0.5,1.4,1.3,1.4l1.9,0.3c14.9,1.9,30.1,1.9,45,0l1.9-0.3c0.7-0.1,1.3-0.7,1.2-1.4L172.3,68z M160.8,64.5
		c0,1.4-1.1,2.4-2.4,2.4h-23.2c-1.4,0-2.4-1.1-2.5-2.4V41.2c0-1.3,1.2-2.4,2.5-2.4h23.2c1.3,0,2.4,1,2.4,2.3l0,0l0,0V64.5z"/>
	<path class="st7" d="M121.3,44.6h2.3c0.9,0,1.7,0.7,1.7,1.7v3.2c0,0.9-0.7,1.7-1.7,1.7h-2.3c-0.9,0-1.7-0.7-1.7-1.7v-3.2
		C119.7,45.3,120.4,44.6,121.3,44.6z"/>
	<path class="st7" d="M121.3,58.6h2.3c0.9,0,1.7,0.7,1.7,1.7v3.2c0,0.9-0.7,1.7-1.7,1.7h-2.3c-0.9,0-1.7-0.7-1.7-1.7v-3.2
		C119.7,59.3,120.4,58.6,121.3,58.6z"/>
	<path class="st7" d="M170.1,44.6h2.3c0.9,0,1.7,0.7,1.7,1.7v3.2c0,0.9-0.7,1.7-1.7,1.7h-2.3c-0.9,0-1.7-0.7-1.7-1.7v-3.2
		C168.4,45.3,169.1,44.6,170.1,44.6z"/>
	<path class="st7" d="M170.1,58.6h2.3c0.9,0,1.7,0.7,1.7,1.7v3.2c0,0.9-0.7,1.7-1.7,1.7h-2.3c-0.9,0-1.7-0.7-1.7-1.7v-3.2
		C168.4,59.3,169.1,58.6,170.1,58.6z"/>
	<rect x="136.3" y="42.4" class="st7" width="20.9" height="20.9"/>
</g>
<g>
	<path class="st8" d="M65,52H40.1v24.7H25V52H0V38h24.9V13.3H40V38h24.9L65,52L65,52z"/>
</g>
<ellipse transform="matrix(0.7071 -0.7071 0.7071 0.7071 96.4038 356.1393)" class="st9" cx="478.1" cy="61.7" rx="51.7" ry="51.7"/>
<circle class="st9" cx="31.5" cy="60.7" r="51.7"/>
<image style="display:none;overflow:visible;enable-background:new    ;" width="2009" height="2296" xlink:href="colete.png"  transform="matrix(2.820943e-02 0 0 2.820943e-02 229.6548 22.6156)">
</image>
<image style="display:none;overflow:visible;enable-background:new    ;" width="2156" height="1702" xlink:href="comifa.png"  transform="matrix(3.604982e-02 0 0 3.604982e-02 -6.0319 25.5569)">
</image>
<image style="display:none;overflow:visible;enable-background:new    ;" width="2116" height="3294" xlink:href="energia.png"  transform="matrix(1.999027e-02 0 0 1.999027e-02 452.9681 28.076)">
</image>
<image style="display:none;overflow:visible;enable-background:new    ;" width="2256" height="2060" xlink:href="vida.png"  transform="matrix(3.077670e-02 0 0 3.077670e-02 321.7839 23.3)">
</image>
<image style="display:none;overflow:visible;enable-background:new    ;" width="1485" height="2113" xlink:href="agua.png"  transform="matrix(3.046646e-02 0 0 3.046646e-02 119.1341 22.8122)">
</image>
</svg>
