<svg id="Camada_1" data-name="Camada 1" xmlns="http://www.w3.org/2000/svg" viewBox="0 0 44.98 49.26"><defs><style>.cls-1{fill:#ffb700;}</style></defs><path class="cls-1" d="M42.58,44.19v5.07H2.4V21.88a8.85,8.85,0,0,0,4.47-7.7V2a2,2,0,0,1,2-2h2.75a2,2,0,0,1,2,2V6.33a8.88,8.88,0,0,0,8.9,8.87,9,9,0,0,0,8.84-9V2a2,2,0,0,1,2-2h2.75a2,2,0,0,1,2,2V14.18a8.85,8.85,0,0,0,4.47,7.7V44.19Z"/><path class="cls-1" d="M5,46.68V23.26a11.49,11.49,0,0,0,4.47-9.08V2.58H11V6.33A11.45,11.45,0,0,0,22.49,17.79h0A11.54,11.54,0,0,0,33.94,6.2V2.58h1.59v11.6A11.48,11.48,0,0,0,40,23.26V46.68Z"/><path class="cls-1" d="M2.4,25.74H12A1.24,1.24,0,0,1,13.25,27v3.86A1.24,1.24,0,0,1,12,32.07H1.24A1.23,1.23,0,0,1,0,30.83V27a1.23,1.23,0,0,1,1.24-1.23Z"/><path class="cls-1" d="M2.4,37.85H12a1.25,1.25,0,0,1,1.24,1.24V43A1.24,1.24,0,0,1,12,44.19H1.24A1.23,1.23,0,0,1,0,43V39.09a1.24,1.24,0,0,1,1.24-1.24Z"/><path class="cls-1" d="M42.58,44.19H33A1.24,1.24,0,0,1,31.73,43V39.09A1.25,1.25,0,0,1,33,37.85H43.74A1.24,1.24,0,0,1,45,39.09V43a1.23,1.23,0,0,1-1.24,1.24Z"/><path class="cls-1" d="M42.58,32.07H33a1.24,1.24,0,0,1-1.24-1.24V27A1.24,1.24,0,0,1,33,25.74H43.74A1.23,1.23,0,0,1,45,27v3.86a1.23,1.23,0,0,1-1.24,1.24Z"/></svg>