<?xml version="1.0" encoding="utf-8"?>
<!-- Generator: Adobe Illustrator 26.0.0, SVG Export Plug-In . SVG Version: 6.00 Build 0)  -->
<svg version="1.1" id="Camada_1" xmlns="http://www.w3.org/2000/svg" xmlns:xlink="http://www.w3.org/1999/xlink" x="0px" y="0px"
	 viewBox="0 0 886.3 118.7" style="enable-background:new 0 0 886.3 118.7;" xml:space="preserve">
<style type="text/css">
	.st0{fill:#FFFFFF;}
</style>
<g transform="translate(0.000000,512.000000) scale(0.100000,-0.100000)">
	<path class="st0" d="M259.5,4966.5c-80.4-5.4-147.6-36.7-203.8-94.6C16.4,4831.2-8,4787-21.9,4731.4c-7.1-28.4-9.1-83.5-4-114.5
		c9.1-54.8,36.3-111.7,77.2-160.5c16.1-19.4,414.7-416.1,421.8-419.7c7.3-4,23.2-3.4,30,1c10.1,6.5,412.5,408.3,425.8,425.2
		c35.5,44.8,59.1,93.1,69.8,142.1c5.4,24.4,5.4,92.3,0.2,116.9c-15.3,71.4-55.2,135.3-113.5,180.6c-92.5,72.2-214.9,84.3-320.4,31.7
		c-21.8-10.9-40.9-23.2-61.9-39.5l-15.7-11.9l-15.5,11.9c-55.6,42.9-112.1,65.9-175.2,71.2c-13.3,1-24.8,1.8-26,1.6
		C269.6,4967.3,264.6,4966.9,259.5,4966.5z M314.4,4900.4c30.4-5.2,65.3-19.6,95.4-38.9c15.1-9.7,39.7-29.2,46.4-36.7
		c2.2-2.6,7.7-7.3,11.9-10.3c6.5-4.8,9.9-5.8,19.2-5.8c12.9,0,16.3,1.8,32.5,17.3c29,27.8,77.2,56.9,111.9,67.3
		c46.6,14.1,97.6,13.5,142.1-1.6c87.3-29.6,151.6-105.2,165.5-194.8c3.2-20.4,1-66.9-3.8-85.9c-9.9-37.1-29.4-76.4-52.2-104.2
		l-6.9-8.7h-88.1l-88.1,0.2l-48.8,91.1c-60.9,113.3-59.9,111.5-67.1,115.3c-8.7,4.4-25.4,3.8-33.5-1.2c-7.9-4.6-6.2-1.6-83.5-165.5
		c-26-55.2-47.8-100.4-48.4-100.4s-20.2,30.2-43.7,67.1c-29.6,46.6-44.4,67.9-48.6,70.6c-8.3,4.6-25.8,4.6-33.7-0.2
		c-4-2.6-13.1-15.7-28-40.3l-22-36.7h-72.2H98.5l-6.9,8.7c-26.8,33.3-47.2,76.8-54.8,116.5c-3.8,21-3.8,61.1,0,81.9
		c15.1,79.2,73,149.6,149.2,181c15.3,6.5,41.3,13.9,54.4,15.7C255.5,4904,298.7,4903.2,314.4,4900.4z M610.5,4532.5
		c49.6-92.3,46-86.3,53.4-90.7c6-3.8,10.5-4,79.6-4h73.4l-163.5-163.3c-89.7-89.9-164.5-163.3-166.1-163.3s-76.4,73.4-166.1,163.3
		l-163.5,163.3H215c68.9,0,64.1-1.6,82.7,29.2c7.3,11.7,13.5,20.6,14.1,19.6s20.8-32.5,44.6-69.8c30.4-47.6,45.2-69.2,49.6-72
		c8.7-5.2,25.4-5.2,34.3,0.4c7.9,4.6,6,1.4,82.5,163.3c25.6,54,47,97.6,47.8,96.8C571.2,4604.6,589.2,4571.8,610.5,4532.5z"/>
</g>
<path class="st0" d="M406.7,50.1L406.7,50.1c-1.7,0.2-2.9,1.8-2.8,3.5c0,0,0,0,0,0.2c0,1.7,1.3,2.8,2.9,2.8c1.7,0,2.8-1.3,2.8-2.9
	c0-0.4,0-0.6-0.2-0.7C409.3,51.4,408.2,50.3,406.7,50.1z"/>
<g transform="translate(0.000000,512.000000) scale(0.100000,-0.100000)">
	<path class="st0" d="M2396.8,4979c-47.4-33-80.4-48.5-127.2-59.8c-64.4-15.7-144.4-9.1-202.9,16.8c-18.1,8.1-30.8,5.5-34.7-7.2
		c-1.3-4-1.7-90.1-1.5-260.9l0.4-254.9l5.1-13.8c21.1-57,78-135.9,151.8-211.1c60-60.8,118.4-108.4,190.5-154.8
		c32.1-20.6,32.5-20.6,61.4-2.6c151.8,94.2,306.4,258.6,347,368.5l5.1,13.8l0.4,254.9c0.2,170.9-0.2,256.9-1.5,260.9
		c-4,12.3-16.4,15.3-33.2,7.9c-71.6-31.3-157.3-35.3-231.8-10.8c-31.7,10.4-61.4,26.1-98.9,52.3
		C2415.7,4985.7,2406.8,4985.9,2396.8,4979z M2431.2,4928.9c57.4-36.1,127.6-56.3,196.2-56.3c37.2,0,75.3,6.2,123.3,20l4.2,1.1v-233
		c0-263.6,1.3-242-15.9-274.3c-42.5-80.2-128.8-178.6-225.8-256.9c-31.3-25.5-96.7-70.6-101.9-70.6c-2.8,0-32.8,19.3-58.5,37.6
		c-74.9,53.4-147.3,121.8-205.4,194.5c-35.1,43.4-68.9,98.5-76.5,124.4c-2.6,8.7-3,37.2-3,244.1v234.3l4.2-1.1
		c76.3-22.1,131-25.5,197.7-12.3c40.8,8.1,91.9,28.9,124.6,50.6c7.7,5.1,15.1,9.4,16.2,9.4C2411.7,4940.6,2421,4935.3,2431.2,4928.9
		z"/>
	<path class="st0" d="M2385.9,4851c-44.4-29.5-83.8-41.3-136.1-41.3c-32.1,0-54.9,4-81.2,14.2c-21,8.3-30.8,9.1-37.9,3l-5.5-4.7
		l-0.6-188.6c-0.4-136.3,0-191.2,1.5-198.8c6.8-32.7,51.2-100.1,99.3-151c53.2-56.3,105.5-99.9,162.5-135.6c20.8-13,24.7-13,45.9,0
		c54.9,33.6,115.2,84,164.6,137.4c45.7,49.5,83.6,105.2,96.1,141.4c3.4,9.6,3.6,19.8,3.6,201.6c0,171.4-0.4,191.8-3,196
		c-3,4.7-13.4,9.3-17.9,7.7c-1.5-0.6-11.1-4-21.3-7.7c-62.7-23-126.1-20.8-185.4,6.6c-13.8,6.4-22.3,11.5-44.9,27
		C2413.6,4866.4,2407.4,4865.3,2385.9,4851z M2424.6,4813c25.9-16.8,57.2-29.5,91.8-37c14.9-3.2,24.9-4,52.5-4.2
		c35.3,0,56.3,2.6,80.2,10l11.3,3.6v-172.2V4441l-7.2-15.1c-36.6-75.3-132.7-175.8-225.6-235.6l-16.4-10.6l-20.4,13.4
		c-91.8,61.2-181.2,155-220.7,231.6l-8.1,15.7v172.4v172.6l11.3-3.6c24-7.4,44.9-10,80.2-10c36.6,0.2,54.9,3,85.5,13
		c17.9,6,49.1,21.1,61.7,30c5.3,3.6,9.6,6.6,9.8,6.6C2410.8,4821.7,2417,4817.7,2424.6,4813z"/>
</g>
<g transform="translate(0.000000,512.000000) scale(0.100000,-0.100000)">
	<path class="st0" d="M4266.1,4958.6c-6.2-3.7-8.8-7.2-12.9-16.2c-19.5-43.9-45.9-89.3-93.5-160.1c-18.2-27.2-51.8-77.3-74.4-111.1
		c-79.2-118.1-111.7-179.4-128.2-242.4c-8.4-32.1-10.1-47.8-8.8-84.3c1.5-44.3,7.7-73.5,23.9-113.1
		c36.5-90.4,112.9-161.8,205.1-191.9c39.3-13,57.3-15.6,106.5-15.6c37.8,0,45.7,0.6,64.3,4.2c134.4,27.2,236.9,128.7,265.6,262.8
		c5.7,26.6,8.1,77.3,4.6,101.4c-7.9,53.6-32.3,113.7-76.4,187.1c-10.1,16.7-35.6,56.4-56.9,88.2c-21.5,31.8-54.9,81.9-74.6,111.1
		c-44.8,66.7-65.9,101.7-85.2,141.4c-19.1,38.9-23.1,43.2-41.7,43.2C4276.3,4963.2,4271.7,4962,4266.1,4958.6z M4291.4,4856.2
		c18.5-36.9,60.6-105.1,126.4-204.8c77.7-117.9,106-169.1,125.1-226.3c10.8-32.7,13.4-49.6,12.3-79.9c-1.8-45-14.5-87.4-37.3-125.3
		c-40.6-67.2-104.3-112-182.6-128.6c-23.7-5-82.6-4.6-106.5,0.7c-57.5,12.9-103.6,38.8-142.9,80.3c-34.5,36.7-57.7,80.6-68.5,130.6
		c-5.3,24.2-6.6,63.5-2.8,84.5c6.6,35.1,26.6,84.7,54.9,135.5c20.8,37.1,35.3,60.4,89.3,142.5c62.4,95,102.3,159.8,119.2,194.3
		c2.6,5.3,5.3,9.2,6.2,8.6C4285.2,4867.9,4288.3,4862.4,4291.4,4856.2z"/>
	<path class="st0" d="M4479.8,4423.1c-7.7-1.3-14.9-5.9-20.2-13.2c-2.8-3.7-4-9.4-5.1-24.1c-3.3-41.9-14.7-71.6-39.5-102.3
		c-29.4-36.2-71.6-57.1-125.3-61.9c-20.8-1.8-25.5-4-32.9-15.1c-11.9-17.4-2.9-41.7,17.6-47.9c10.7-3.1,46.1,0,70.2,6.4
		c80.1,21.1,144.7,85.2,166,164.9c5.5,20.6,9,47.6,7.9,62.6c-0.6,9.4-1.8,13.2-5.7,18.5C4504.8,4421.6,4494,4425.5,4479.8,4423.1z"
		/>
</g>
<path class="st0" d="M651.7,73.5h-2.9c0.3-0.8,0.5-1.5,0.5-2.4v-4.4c0-0.8-0.2-1.7-0.5-2.4h2.7c4.1,0,7.2-3.4,7.2-7.3
	c0-4.1-3.3-7.3-7.2-7.3h-2.7c0.3-0.8,0.5-1.7,0.5-2.4c-0.5-9-5.4-17.3-13.2-21.7c-19-11.3-42.6-11.3-61.5,0
	c-7.8,4.4-12.8,12.7-13.2,21.7c0,0.8,0.2,1.7,0.5,2.4H559c-4.1,0-7.2,3.4-7.2,7.3c0,4.1,3.3,7.3,7.2,7.3l0,0h2.7
	c-0.3,0.8-0.5,1.7-0.5,2.4V71c0,0.8,0.2,1.7,0.5,2.4H559c-4.1,0.3-7.1,4-6.6,8.1c0.3,3.5,3.2,6.4,6.6,6.7h2.4v7.5c0,0.8,0,1.5,0,2.1
	c0.2,1.1,0.6,2.1,1.1,3.2l0,0c0.3,0.6,0.6,1.2,1.1,1.8l0,0c2.1,3.2,5.9,5.2,9.6,4.9h64.7c3.9,0.2,7.5-1.7,9.6-4.9l0,0
	c0.6-0.8,1.1-1.8,1.5-2.8c0.2-0.6,0.3-1.2,0.6-1.7c0.2-0.9,0.3-2,0.3-2.9v-7.3h2.4c4.1-0.5,7.1-4,6.6-8.1
	C658.1,76.5,655.3,73.8,651.7,73.5L651.7,73.5z M559,59.3c-1.4,0-2.4-1.1-2.4-2.4c0-1.4,1.1-2.4,2.4-2.4h14c1.4-0.2,2.3-1.4,2.1-2.8
	l0,0c-0.2-1.1-0.9-2-2.1-2.3h-4.7c-1.4,0-2.4-1.1-2.4-2.4l0,0l0,0c0.5-7.3,4.7-14.1,11.1-17.6c17.5-10.2,39.1-10.2,56.6,0
	c6.3,3.5,10.4,10.2,10.8,17.6c0,1.4-1.1,2.4-2.4,2.4l0,0h-48.7c-1.4,0.2-2.3,1.4-2.1,2.8c0,0,0,0,0,0.2c0.2,1.1,0.9,2,2.1,2.1h58.4
	c1.4,0,2.4,1.1,2.4,2.4c0,1.4-1.1,2.4-2.4,2.4h-9.3c-2.6,0-5.1,0.8-7.4,2.1c-3,2.1-7.1,2.1-10.1,0c-4.5-2.9-10.2-2.9-14.6,0
	c-3,2.1-7.1,2.1-10.1,0c-4.5-2.9-10.2-2.9-14.6,0c-3,2.1-7.1,2.1-10.1,0c-2.1-1.5-4.7-2.3-7.4-2.1H559z M644.7,66.6V71
	c0,1.4-1.1,2.4-2.4,2.4h-74.2c-1.4,0-2.3-1.1-2.4-2.4v-4.4c0-1.2,0.9-2.4,2.3-2.4c0,0,0,0,0.2,0l0,0c1.8,0,3.6,0.6,5.1,1.5
	c4.5,2.9,10.2,2.9,14.6,0c1.5-1.1,3.3-1.7,5.1-1.5c1.8,0,3.6,0.6,5.1,1.5c2.1,1.4,4.7,2.3,7.4,2.3c2.6,0,5.1-0.8,7.4-2.3
	c1.5-1.1,3.3-1.7,5.1-1.5c1.8,0,3.6,0.5,5.1,1.5c2.1,1.4,4.7,2.3,7.4,2.3c2.6,0,5.1-0.8,7.4-2.3c1.5-1.1,3.3-1.7,5.1-1.5
	C643.7,64.2,644.7,65.2,644.7,66.6L644.7,66.6z M651.7,83.1h-9.3c-1.4,0.2-2.3,1.4-2.1,2.8c0,0,0,0,0,0.2c0.2,1.1,0.9,2,2.1,2.1h2.4
	v7.5c0.2,4-2.9,7.3-6.8,7.6h-65.2c-3.9-0.2-7.1-3.4-7.1-7.3v-7.5h55.8c1.4-0.2,2.3-1.4,2.1-2.8l0,0c-0.2-1.1-1.1-1.8-2.1-2h-62.7
	c-1.4,0-2.4-1.2-2.4-2.4l0,0l0,0c0-1.4,0.9-2.4,2.3-2.4c0,0,0,0,0.2,0h92.7c1.4,0,2.4,1.1,2.4,2.4c0,0,0,0,0,0.2l0,0
	c0,1.4-1.1,2.4-2.4,2.4l0,0l0,0C651.7,83.4,651.7,83.1,651.7,83.1z"/>
<path class="st0" d="M584.3,38.2c1.8,0,3.3-1.3,3.5-3.1c0-1.8-1.5-3.3-3.3-3.3s-3.3,1.5-3.3,3.3l0,0l0,0
	C581.2,36.8,582.7,38.2,584.3,38.2z"/>
<path class="st0" d="M632,41.3c1.8,0,3.3-1.5,3.3-3.3s-1.5-3.3-3.3-3.3l0,0c-1.7,0-3.1,1.3-3.1,3.1c0,0,0,0,0,0.2l0,0
	C628.9,39.9,630.3,41.3,632,41.3L632,41.3z"/>
<path class="st0" d="M604.4,35.8c1.8,0,3.3-1.5,3.3-3.3s-1.5-3.3-3.3-3.3c-1.7,0-3.1,1.3-3.1,3.1c0,0,0,0,0,0.2l0,0
	C601.1,34.3,602.5,35.8,604.4,35.8L604.4,35.8z"/>
<path class="st0" d="M582.3,54.7c1.8,0,3.3-1.3,3.5-3.1c0-1.8-1.5-3.3-3.3-3.3s-3.3,1.5-3.3,3.3l0,0l0,0
	C579.2,53.2,580.7,54.7,582.3,54.7z"/>
<g transform="translate(0.000000,512.000000) scale(0.100000,-0.100000)">
	<path class="st0" d="M8053.2,4954.9c-56.6-10.1-117.5-36.9-157.7-69.1c-7.1-5.7-14.8-9-23.2-10.1c-76.5-9.6-143.5-35-202-76
		c-30.6-21.6-74.1-64.8-95.7-94.8c-33.9-47.6-63.7-115.6-71.9-165.6c-2.7-14.8-6.3-23.2-16.7-39.4c-30.3-47.3-41.8-85-42.1-139.4
		c0-50.8,9.8-87.7,33.9-128.2c40.7-67.8,110.4-112.9,188.3-121.9c13.4-1.4,22.1-4.9,41-15.6c44.5-26,100.3-44.5,152.8-51.7
		c53.6-7.1,132.3,0.3,183.9,16.9c42.6,13.9,103,47.6,135.6,75.2l13.9,12h131.2h130.9l21.9-9.6c151.1-65.3,320.6,20,358.3,180.6
		c6.6,28.4,6.6,87.2,0,114.2c-14.8,59.9-50.3,114-97.6,149.2c-15,10.9-42.4,27.3-51.7,30.6c-1.4,0.3-4.6,10.7-7.1,22.7
		c-28.1,136.4-141.6,238.6-280.4,252.5c-14.2,1.4-35.8,1.9-47.8,1.1l-21.6-1.6l-24,15.9c-39.9,25.7-85,43.2-134.2,51.9
		C8142,4959.9,8080.8,4960.1,8053.2,4954.9z M8172.3,4892.1c23.5-4.9,49.5-13.9,71.6-24.9l15.6-7.7l-15-14.8
		c-26.5-26.5-43.2-72.2-38.3-104.9c3.6-23.2,22.7-34.7,42.1-24.6c12,6,16.7,16.7,16.7,39.1c0.3,18.9,5.5,32,18.6,46.5
		c18,20,41,27.1,86.6,27.1c108.2-0.3,205.5-71.1,241-176c8.7-25.7,8.7-26.2-5.2-26.2c-15,0-36.9-6.6-57.9-16.9
		c-31.7-16.1-69.7-63.7-69.7-87.7c0-19.7,20.8-33.1,39.1-25.4c7.1,3,12.3,8.5,20.8,23c20.2,34.4,42.1,48.1,78.2,48.4
		c21,0,23-0.5,51.9-14.8c25.7-12.8,33.1-18,53.3-38.3c38.8-38.8,57.7-84.7,57.7-139.7c0-31.7-5.5-57.4-18-83.6
		c-48.4-100.8-167-141.8-267-92.6l-19.7,9.6h-120c-103.3,0-119.7,0.5-118.6,3.8c10.4,26.8,11.5,68.3,2.5,94.6
		c-9.6,27.6-25.7,52.5-41.5,63.7c-12.8,8.7-32.8,4.1-39.9-9.3c-6.3-12.3-4.6-22.7,5.7-36.3c16.1-21.3,21.3-33.9,22.7-56.6
		c2.2-39.4-10.4-59.3-60.4-96.5c-118.9-87.7-279.3-92.6-405-12.8c-24.9,15.9-39.6,47.3-39.6,85c0,30.6,7.7,51.4,29.5,78.4
		c5.7,7.1,9.8,15.9,10.7,22.4c1.4,9.8,0.5,12-8.2,20.8c-15.6,15.6-31.4,12.8-49.2-8.2c-16.9-20.2-27.9-41-36.3-68.6
		c-6.3-21.3-6.6-70.5,0-89.9c2.2-7.4,4.4-14.5,4.4-15.6s-5.7,0.8-12.8,3.8c-69.7,30.6-113.1,97.8-113.1,174.4
		c0,42.4,10.4,73.8,36.6,111.8c13.4,18.9,15,23.2,19.4,46.7c13.1,72.4,44.5,134.5,94.8,186.9c29.8,31.2,62.9,55.2,102.2,74.3
		c25.7,12.3,74.6,29.5,77.3,27.1c0.5-0.5-1.4-7.9-4.1-16.7c-7.7-25.1-6.3-67.5,2.7-95.4c8.2-24.9,24.3-50.8,40.2-65.3
		c17.8-16.1,39.4-12.6,48.1,7.9c4.9,11.8,2.5,19.1-11.8,37.4c-20.5,26.8-24,37.2-24,71.9c0,26.8,0.8,31.7,7.4,45.6
		c20.2,43.2,94.8,87.7,170.3,101.9C8090.9,4899.7,8142.6,4898.4,8172.3,4892.1z"/>
	<path class="st0" d="M8142.3,4627.3c-27.9-7.9-41-18.6-41-34.4c0-10.1,8.2-22.1,18-26.2c8.7-3.6,11.5-3.6,30.6,1.9
		c46.7,13.1,86.6-1.9,112.3-42.6c12.6-20,17.2-23.2,32.2-23.2c8.2,0,12.6,1.9,17.8,7.7c11.8,12.3,12.3,20.2,2.2,41
		c-17.2,34.7-55.2,65-95.7,75.7C8200.8,4631.9,8159.2,4631.9,8142.3,4627.3z"/>
	<path class="st0" d="M7938.1,4443.9c-53-14.5-93.5-66.7-93.7-121.3c0-9.8,1.6-13.4,9.3-21c7.1-7.1,11.5-9.3,19.4-9.3
		c13.1,0,28.7,14.5,28.7,26.5c0,15,8.2,36.3,18.3,47.6c12.8,13.9,25.7,20.8,47.6,24c14.2,2.2,18.9,4.4,25.1,11.2
		c12,13.4,8.7,34.7-6.6,42.6C7976.7,4449.1,7956.7,4448.8,7938.1,4443.9z"/>
	<path class="st0" d="M8603.9,4405.9c-40.4-16.4-65.3-50.3-67.5-91c-1.1-19.1-0.8-20.2,7.1-28.1c6.8-6.6,10.7-8.2,20.2-8.2
		c16.7,0,26,9.8,29.5,31.2c4.1,26.2,18.6,40.7,45.6,45.6c21.6,3.8,30.9,12.8,30.9,29.2c0,9.6-1.6,13.4-7.9,20
		c-7.1,7.1-9.8,7.9-25.4,7.9C8624.9,4412.5,8614.3,4410.3,8603.9,4405.9z"/>
</g>
</svg>
