<?xml version="1.0" encoding="utf-8"?>
<!-- Generator: Adobe Illustrator 26.0.3, SVG Export Plug-In . SVG Version: 6.00 Build 0)  -->
<svg version="1.1" id="Camada_1" xmlns="http://www.w3.org/2000/svg" xmlns:xlink="http://www.w3.org/1999/xlink" x="0px" y="0px"
	 viewBox="0 0 380 470" style="enable-background:new 0 0 380 470;" xml:space="preserve">
<style type="text/css">
	.st0{fill:#FFFFFF;}
</style>
<path class="st0" d="M190,0C123.6,0,70,53.6,70,120v50H30c-17,0-30,13-30,30v240c0,17,13,30,30,30h320c17,0,30-13,30-30V200
	c0-17-13-30-30-30h-40v-50C310,53.6,256.4,0,190,0z M190,20c55.7,0,100,44.3,100,100v50H90v-50C90,64.3,134.3,20,190,20z M190,270
	c17,0,30,13,30,30c0,9-4,16.9-10,21.9V350c0,11-9,20-20,20s-20-9-20-20v-28.1c-6-5-10-12.9-10-21.9C160,283,173,270,190,270z"/>
</svg>
