<?xml version="1.0" encoding="utf-8"?>
<!-- Generator: Adobe Illustrator 24.0.1, SVG Export Plug-In . SVG Version: 6.00 Build 0)  -->
<svg version="1.1" id="Camada_1" xmlns="http://www.w3.org/2000/svg" xmlns:xlink="http://www.w3.org/1999/xlink" x="0px" y="0px"
	 viewBox="0 0 56.7 64.8" style="enable-background:new 0 0 56.7 64.8;" xml:space="preserve">
<style type="text/css">
	.st0{display:none;opacity:0.3;enable-background:new    ;}
	.st1{display:none;fill:none;}
	.st2{display:none;fill:#F2F2F2;enable-background:new    ;}
	.st3{font-family:'Teko-Medium';}
	.st4{font-size:36px;}
	.st5{display:none;fill:#4AF2FF;}
	.st6{display:none;fill:#FF8100;}
	.st7{display:none;}
	.st8{display:inline;fill:#A9A9A9;}
	.st9{display:inline;fill:#FF1F0A;}
	.st10{display:none;fill:#353535;}
</style>
<rect x="-356.7" y="-29.3" class="st0" width="594.5" height="151.3"/>
<title>fundo</title>
<rect x="132" y="68.7" class="st1" width="742.3" height="305"/>
<text transform="matrix(1 0 0 1 132.0563 92.7752)" class="st2 st3 st4">100%</text>
<rect x="-6" y="68.7" class="st1" width="742.3" height="305"/>
<text transform="matrix(1 0 0 1 -5.9437 92.7752)" class="st2 st3 st4">100%</text>
<rect x="-144" y="68.7" class="st1" width="742.3" height="305"/>
<text transform="matrix(1 0 0 1 -143.9437 92.7752)" class="st2 st3 st4">100%</text>
<rect x="-299.7" y="68.7" class="st1" width="742.3" height="305"/>
<text transform="matrix(1 0 0 1 -299.6587 92.7752)" class="st2 st3 st4">100%</text>
<path class="st5" d="M4.9-16C-1-16-5.9-11.5-6.5-5.7h-8c-0.7,0-1.2,0.6-1.2,1.3l0,0c0,0.7,0.6,1.2,1.2,1.2l0,0H2L-5.2,4
	c-1.5,0.7-3.3,0.7-4.9,0c-2.3-1.3-5.1-1.3-7.4,0c-1.6,0.8-3.4,0.8-4.9,0c-1.5-0.9-3.2-1.2-4.9-0.9l-4.6-6.2h6.5
	c0.7,0,1.2-0.6,1.2-1.2l0,0c0-0.7-0.6-1.2-1.2-1.2l0,0h-8.3l-6.6-8.9c-0.4-0.6-1.1-0.7-1.6-0.4l0,0l0,0c-0.6,0.4-0.7,1.1-0.3,1.7
	l0,0l5.5,7.4h-8.1c-0.5,0-0.9,0.3-1.1,0.7c-0.2,0.4-0.1,1,0.3,1.3l9.4,9.4l0,0l7.9,7.9l2.5,5.8c0.4,1.6,2,2.7,3.7,2.5h1.2v14.5
	l-10.8,8.1c-0.5,0.4-0.6,1.2-0.2,1.7c0.2,0.3,0.6,0.5,1,0.5h22.2c0.5,0,1-0.3,1.2-0.8c0.1-0.5,0-1-0.4-1.4l-10.8-8.1V22.1h1.2
	c1.7,0.1,3.2-0.9,3.7-2.5l2.5-5.8l7.9-7.9l0,0l1.3-1.3c2,1.7,4.6,2.6,7.2,2.6c6.3,0,11.5-5.2,11.5-11.5S11.4-15.8,5.1-15.8l0,0
	C4.9-15.9,4.9-16,4.9-16z M-34.8,3.9L-42-3.3h7l5.2,7.1l0,0c-1.5,0.7-3.3,0.7-4.8,0L-34.8,3.9z M-12.5,44.2h-15.1l7.4-5.7
	L-12.5,44.2z M-16.2,18.5c-0.4,0.9-0.5,1-1.4,1h-4.8c-0.9,0-1,0-1.4-1l-1.8-4.3h11.1L-16.2,18.5z M-13,11.7h-13.8l-4.9-4.9
	c1.1-0.1,2.2-0.4,3.1-0.9c1.6-0.8,3.4-0.8,5,0c2.3,1.3,5.1,1.3,7.4,0c1.6-0.8,3.4-0.8,4.9,0c1,0.6,2,0.9,3.2,0.9L-13,11.7z
	 M-4.1-5.7c0.2-1.6,0.8-3,1.8-4.3L2-5.7C2-5.7-4.1-5.7-4.1-5.7z M3.7,4.5c-1.5-0.2-3-0.9-4.2-1.8l4.2-4.3V4.5z M3.7-7.5l-4.2-4.2
	c1.2-1,2.7-1.6,4.2-1.8V-7.5z M13.9-5.7h-6l4.3-4.3c1,1.2,1.7,2.7,1.9,4.3C14.1-5.7,13.9-5.7,13.9-5.7z M6.1-13.5
	c1.6,0.2,3,0.8,4.3,1.8L6.1-7.5V-13.5z M6.1,4.5v-6.1l4.3,4.3C9.2,3.6,7.7,4.3,6.1,4.5L6.1,4.5z M12.1,1L7.8-3.3H14
	C13.8-1.7,13.2-0.2,12.1,1L12.1,1z"/>
<path class="st5" d="M-21.2-4.6L-21.2-4.6c0.7,0,1.3-0.6,1.3-1.3l0,0c0-0.7-0.6-1.3-1.3-1.3s-1.3,0.6-1.3,1.3S-21.9-4.6-21.2-4.6
	L-21.2-4.6z"/>
<path class="st6" d="M67.2,11.8c1-0.2,1.7-1,1.5-2l0,0c-0.1-0.7-0.7-1.3-1.5-1.5l0,0c-0.9,0.1-1.6,1-1.5,2c0,0,0,0,0,0.1
	C65.8,11.1,66.4,11.7,67.2,11.8z"/>
<path class="st6" d="M113.1,23.7h-1.9c0.2-0.5,0.3-1,0.3-1.6v-2.9c0-0.5-0.1-1.1-0.3-1.6h1.8c2.7,0,4.8-2.2,4.8-4.8
	c0-2.7-2.2-4.8-4.8-4.8h-1.8c0.2-0.5,0.3-1.1,0.3-1.6c-0.3-5.9-3.6-11.3-8.8-14.2c-12.6-7.4-28.3-7.4-40.9,0
	C56.6-4.9,53.3,0.5,53,6.4c0,0.5,0.1,1.1,0.3,1.6h-1.8c-2.7,0-4.8,2.2-4.8,4.8c0,2.7,2.2,4.8,4.8,4.8l0,0h1.8
	c-0.2,0.5-0.3,1.1-0.3,1.6v2.9c0,0.5,0.1,1.1,0.3,1.6h-1.8c-2.7,0.2-4.7,2.6-4.4,5.3c0.2,2.3,2.1,4.2,4.4,4.4h1.6v4.9
	c0,0.5,0,1,0,1.4c0.1,0.7,0.4,1.4,0.7,2.1l0,0c0.2,0.4,0.4,0.8,0.7,1.2l0,0c1.4,2.1,3.9,3.4,6.4,3.2h43c2.6,0.1,5-1.1,6.4-3.2l0,0
	c0.4-0.5,0.7-1.2,1-1.8c0.1-0.4,0.2-0.8,0.4-1.1c0.1-0.6,0.2-1.3,0.2-1.9v-4.8h1.6c2.7-0.3,4.7-2.6,4.4-5.3
	C117.4,25.7,115.5,23.9,113.1,23.7L113.1,23.7z M51.5,14.4c-0.9,0-1.6-0.7-1.6-1.6c0-0.9,0.7-1.6,1.6-1.6h9.3
	c0.9-0.1,1.5-0.9,1.4-1.8l0,0c-0.1-0.7-0.6-1.3-1.4-1.5h-3.1c-0.9,0-1.6-0.7-1.6-1.6l0,0l0,0c0.3-4.8,3.1-9.2,7.4-11.5
	c11.6-6.7,26-6.7,37.6,0c4.2,2.3,6.9,6.7,7.2,11.5c0,0.9-0.7,1.6-1.6,1.6l0,0H74.3c-0.9,0.1-1.5,0.9-1.4,1.8c0,0,0,0,0,0.1
	c0.1,0.7,0.6,1.3,1.4,1.4h38.8c0.9,0,1.6,0.7,1.6,1.6c0,0.9-0.7,1.6-1.6,1.6h-6.2c-1.7,0-3.4,0.5-4.9,1.4c-2,1.4-4.7,1.4-6.7,0
	c-3-1.9-6.8-1.9-9.7,0c-2,1.4-4.7,1.4-6.7,0c-3-1.9-6.8-1.9-9.7,0c-2,1.4-4.7,1.4-6.7,0c-1.4-1-3.1-1.5-4.9-1.4H51.5z M108.5,19.2
	v2.9c0,0.9-0.7,1.6-1.6,1.6H57.6c-0.9,0-1.5-0.7-1.6-1.6v-2.9c0-0.8,0.6-1.6,1.5-1.6c0,0,0,0,0.1,0l0,0c1.2,0,2.4,0.4,3.4,1
	c3,1.9,6.8,1.9,9.7,0c1-0.7,2.2-1.1,3.4-1c1.2,0,2.4,0.4,3.4,1c1.4,0.9,3.1,1.5,4.9,1.5c1.7,0,3.4-0.5,4.9-1.5c1-0.7,2.2-1.1,3.4-1
	c1.2,0,2.4,0.3,3.4,1c1.4,0.9,3.1,1.5,4.9,1.5c1.7,0,3.4-0.5,4.9-1.5c1-0.7,2.2-1.1,3.4-1C107.8,17.6,108.5,18.3,108.5,19.2
	L108.5,19.2z M113.1,30h-6.2c-0.9,0.1-1.5,0.9-1.4,1.8c0,0,0,0,0,0.1c0.1,0.7,0.6,1.3,1.4,1.4h1.6v4.9c0.1,2.6-1.9,4.8-4.5,5H60.7
	C58.1,43.1,56,41,56,38.4v-4.9h37.1c0.9-0.1,1.5-0.9,1.4-1.8l0,0c-0.1-0.7-0.7-1.2-1.4-1.3H51.4c-0.9,0-1.6-0.8-1.6-1.6l0,0l0,0
	c0-0.9,0.6-1.6,1.5-1.6c0,0,0,0,0.1,0H113c0.9,0,1.6,0.7,1.6,1.6c0,0,0,0,0,0.1l0,0c0,0.9-0.7,1.6-1.6,1.6l0,0l0,0
	C113.1,30.2,113.1,30,113.1,30z"/>
<path class="st6" d="M91.8-0.6c1,0,1.8-0.7,1.9-1.7c0-1-0.8-1.8-1.8-1.8s-1.8,0.8-1.8,1.8l0,0l0,0C90.1-1.4,90.9-0.6,91.8-0.6z"/>
<path class="st6" d="M83.8,2.9c1,0,1.8-0.8,1.8-1.8s-0.8-1.8-1.8-1.8l0,0c-0.9,0-1.7,0.7-1.7,1.7c0,0,0,0,0,0.1l0,0
	C82.1,2.1,82.9,2.9,83.8,2.9L83.8,2.9z"/>
<path class="st6" d="M72.6-0.8c1,0,1.8-0.8,1.8-1.8s-0.8-1.8-1.8-1.8c-0.9,0-1.7,0.7-1.7,1.7c0,0,0,0,0,0.1l0,0
	C70.8-1.6,71.6-0.8,72.6-0.8L72.6-0.8z"/>
<path class="st6" d="M102.5,32.6L102.5,32.6c-0.9,0.1-1.6,1-1.5,1.9c0,0,0,0,0,0.1c0,0.9,0.7,1.5,1.6,1.5s1.5-0.7,1.5-1.6
	c0-0.2,0-0.3-0.1-0.4C103.9,33.3,103.3,32.7,102.5,32.6z"/>
<g class="st7">
	<path class="st8" d="M-104.9,38.7h-2.3c-2.5-0.1-4.4-2.1-4.6-4.6l0,0v-3.2c0.1-2.5,2.1-4.4,4.6-4.6h2.2v-1.6h-2.2
		c-2.5-0.1-4.4-2.1-4.6-4.6l0,0v-3.2c0.1-2.5,2.1-4.4,4.6-4.6h2.2v-0.7c0-0.6-0.2-1.2-0.5-1.8l-2.1-3.8c-1.8-3.2-2.3-6.9-1.3-10.5
		l1.1-4.1c0.3-1-0.2-2-1.1-2.3l-12.6-4.9c-0.5-0.3-1.1-0.3-1.6,0l-2,1.4c-3.2,2.2-7.5,2.2-10.6,0l-2-1.3c-0.5-0.3-1.1-0.3-1.6,0
		l-12.7,4.9c-0.9,0.4-1.4,1.4-1.1,2.3l1.1,4.1c0.9,3.5,0.5,7.3-1.3,10.5l-2.1,3.8c-0.3,0.5-0.5,1.1-0.5,1.8v0.6h2.3
		c2.5,0.1,4.4,2.1,4.6,4.6v3.2c-0.1,2.5-2.1,4.4-4.6,4.6h-2.4v1.6h2.4c2.5,0.1,4.4,2.1,4.6,4.6v3.2c-0.1,2.5-2.1,4.4-4.6,4.6h-2.5
		v6.1c0,0.7,0.5,1.4,1.3,1.4l1.9,0.3c14.9,1.9,30.1,1.9,45,0l1.9-0.3c0.7-0.1,1.3-0.7,1.2-1.4L-104.9,38.7z M-116.4,35.2
		c0,1.4-1.1,2.4-2.4,2.4H-142c-1.4,0-2.4-1.1-2.5-2.4V11.9c0-1.3,1.2-2.4,2.5-2.4h23.2c1.3,0,2.4,1,2.4,2.3l0,0l0,0V35.2z"/>
	<path class="st8" d="M-155.9,15.3h2.3c0.9,0,1.7,0.7,1.7,1.7v3.2c0,0.9-0.7,1.7-1.7,1.7h-2.3c-0.9,0-1.7-0.7-1.7-1.7V17
		C-157.5,16-156.8,15.3-155.9,15.3z"/>
	<path class="st8" d="M-155.9,29.3h2.3c0.9,0,1.7,0.7,1.7,1.7v3.2c0,0.9-0.7,1.7-1.7,1.7h-2.3c-0.9,0-1.7-0.7-1.7-1.7V31
		C-157.5,30-156.8,29.3-155.9,29.3z"/>
	<path class="st8" d="M-107.1,15.3h2.3c0.9,0,1.7,0.7,1.7,1.7v3.2c0,0.9-0.7,1.7-1.7,1.7h-2.3c-0.9,0-1.7-0.7-1.7-1.7V17
		C-108.8,16-108.1,15.3-107.1,15.3z"/>
	<path class="st8" d="M-107.1,29.3h2.3c0.9,0,1.7,0.7,1.7,1.7v3.2c0,0.9-0.7,1.7-1.7,1.7h-2.3c-0.9,0-1.7-0.7-1.7-1.7V31
		C-108.8,30-108.1,29.3-107.1,29.3z"/>
	<rect x="-140.9" y="13.1" class="st8" width="20.9" height="20.9"/>
</g>
<g class="st7">
	<path class="st9" d="M-207.2,22.7h-24.9v24.7h-15.1V22.7h-25v-14h24.9V-16h15.1V8.7h24.9v14H-207.2z"/>
</g>
<circle class="st10" cx="-105.1" cy="32.4" r="51.7"/>
<circle class="st10" cx="161.8" cy="32.4" r="51.7"/>
<circle class="st10" cx="27.6" cy="32.4" r="51.7"/>
<circle class="st10" cx="289.1" cy="32.4" r="51.7"/>
<circle class="st10" cx="-240.7" cy="32.4" r="51.7"/>
<image style="overflow:visible;" width="2009" height="2296" xlink:href="colete.png"  transform="matrix(2.820943e-02 0 0 2.820943e-02 0 0)">
</image>
<image style="display:none;overflow:visible;" width="2156" height="1702" xlink:href="comifa.png"  transform="matrix(3.604982e-02 0 0 3.604982e-02 -278.1906 -2.7514)">
</image>
<image style="display:none;overflow:visible;" width="2116" height="3294" xlink:href="energia.png"  transform="matrix(1.999027e-02 0 0 1.999027e-02 267.9158 1.4698)">
</image>
<image style="display:none;overflow:visible;" width="2256" height="2060" xlink:href="vida.png"  transform="matrix(3.077670e-02 0 0 3.077670e-02 127.6364 2.6938)">
</image>
<image style="display:none;overflow:visible;" width="1485" height="2113" xlink:href="agua.png"  transform="matrix(3.046646e-02 0 0 3.046646e-02 -129.1415 0.206)">
</image>
</svg>
