<?xml version="1.0" encoding="utf-8"?>
<!-- Generator: Adobe Illustrator 24.0.1, SVG Export Plug-In . SVG Version: 6.00 Build 0)  -->
<svg version="1.1" id="Camada_1" xmlns="http://www.w3.org/2000/svg" xmlns:xlink="http://www.w3.org/1999/xlink" x="0px" y="0px"
	 viewBox="0 0 42.3 65.8" style="enable-background:new 0 0 42.3 65.8;" xml:space="preserve">
<style type="text/css">
	.st0{display:none;opacity:0.3;enable-background:new    ;}
	.st1{display:none;fill:none;}
	.st2{display:none;fill:#4AF2FF;}
	.st3{display:none;fill:#FF8100;}
	.st4{display:none;}
	.st5{display:inline;fill:#A9A9A9;}
	.st6{display:inline;fill:#FF1F0A;}
	.st7{display:none;fill:#353535;}
</style>
<rect x="-624.6" y="-30.8" class="st0" width="594.5" height="151.3"/>
<title>fundo</title>
<rect x="-135.9" y="67.2" class="st1" width="742.3" height="305"/>
<text transform="matrix(1 0 0 1 -135.8595 91.3053)" style="display:none;fill:#F2F2F2;enable-background:new    ; font-family:'Teko-Medium'; font-size:36px;">100%</text>
<rect x="-273.9" y="67.2" class="st1" width="742.3" height="305"/>
<text transform="matrix(1 0 0 1 -273.8595 91.3053)" style="display:none;fill:#F2F2F2;enable-background:new    ; font-family:'Teko-Medium'; font-size:36px;">100%</text>
<rect x="-411.9" y="67.2" class="st1" width="742.3" height="305"/>
<text transform="matrix(1 0 0 1 -411.8595 91.3053)" style="display:none;fill:#F2F2F2;enable-background:new    ; font-family:'Teko-Medium'; font-size:36px;">100%</text>
<rect x="-567.6" y="67.2" class="st1" width="742.3" height="305"/>
<text transform="matrix(1 0 0 1 -567.5745 91.3053)" style="display:none;fill:#F2F2F2;enable-background:new    ; font-family:'Teko-Medium'; font-size:36px;">100%</text>
<path class="st2" d="M-263-17.5c-5.9,0-10.8,4.5-11.4,10.3h-8c-0.7,0-1.2,0.6-1.2,1.3l0,0c0,0.7,0.6,1.2,1.2,1.2l0,0h16.5l-7.2,7.2
	c-1.5,0.7-3.3,0.7-4.9,0c-2.3-1.3-5.1-1.3-7.4,0c-1.6,0.8-3.4,0.8-4.9,0c-1.5-0.9-3.2-1.2-4.9-0.9l-4.6-6.2h6.5
	c0.7,0,1.2-0.6,1.2-1.2l0,0c0-0.7-0.6-1.2-1.2-1.2l0,0h-8.3l-6.6-8.9c-0.4-0.6-1.1-0.7-1.6-0.4l0,0l0,0c-0.6,0.4-0.7,1.1-0.3,1.7
	l0,0l5.5,7.4h-8.1c-0.5,0-0.9,0.3-1.1,0.7c-0.2,0.4-0.1,1,0.3,1.3l9.4,9.4l0,0l7.9,7.9l2.5,5.8c0.4,1.6,2,2.7,3.7,2.5h1.2v14.5
	l-10.8,8.1c-0.5,0.4-0.6,1.2-0.2,1.7c0.2,0.3,0.6,0.5,1,0.5h22.2c0.5,0,1-0.3,1.2-0.8c0.1-0.5,0-1-0.4-1.4l-10.8-8.1V20.6h1.2
	c1.7,0.1,3.2-0.9,3.7-2.5l2.5-5.8l7.9-7.9l0,0l1.3-1.3c2,1.7,4.6,2.6,7.2,2.6c6.3,0,11.5-5.2,11.5-11.5s-5.2-11.5-11.5-11.5l0,0
	C-263-17.4-263-17.5-263-17.5z M-302.7,2.4l-7.2-7.2h7l5.2,7.1l0,0c-1.5,0.7-3.3,0.7-4.8,0L-302.7,2.4z M-280.4,42.7h-15.1l7.4-5.7
	L-280.4,42.7z M-284.1,17c-0.4,0.9-0.5,1-1.4,1h-4.8c-0.9,0-1,0-1.4-1l-1.8-4.3h11.1L-284.1,17z M-280.9,10.2h-13.8l-4.9-4.9
	c1.1-0.1,2.2-0.4,3.1-0.9c1.6-0.8,3.4-0.8,5,0c2.3,1.3,5.1,1.3,7.4,0c1.6-0.8,3.4-0.8,4.9,0c1,0.6,2,0.9,3.2,0.9L-280.9,10.2z
	 M-272-7.2c0.2-1.6,0.8-3,1.8-4.3l4.3,4.3C-265.9-7.2-272-7.2-272-7.2z M-264.2,3c-1.5-0.2-3-0.9-4.2-1.8l4.2-4.3V3z M-264.2-9
	l-4.2-4.2c1.2-1,2.7-1.6,4.2-1.8V-9z M-254-7.2h-6l4.3-4.3c1,1.2,1.7,2.7,1.9,4.3C-253.8-7.2-254-7.2-254-7.2z M-261.8-15
	c1.6,0.2,3,0.8,4.3,1.8l-4.3,4.2V-15z M-261.8,3v-6.1l4.3,4.3C-258.7,2.1-260.2,2.8-261.8,3L-261.8,3z M-255.8-0.5l-4.3-4.3h6.2
	C-254.1-3.2-254.7-1.7-255.8-0.5L-255.8-0.5z"/>
<path class="st2" d="M-289.1-6.1L-289.1-6.1c0.7,0,1.3-0.6,1.3-1.3l0,0c0-0.7-0.6-1.3-1.3-1.3s-1.3,0.6-1.3,1.3
	S-289.8-6.1-289.1-6.1L-289.1-6.1z"/>
<path class="st3" d="M-200.7,10.3c1-0.2,1.7-1,1.5-2l0,0c-0.1-0.7-0.7-1.3-1.5-1.5l0,0c-0.9,0.1-1.6,1-1.5,2c0,0,0,0,0,0.1
	C-202.1,9.6-201.5,10.2-200.7,10.3z"/>
<path class="st3" d="M-154.8,22.2h-1.9c0.2-0.5,0.3-1,0.3-1.6v-2.9c0-0.5-0.1-1.1-0.3-1.6h1.8c2.7,0,4.8-2.2,4.8-4.8
	c0-2.7-2.2-4.8-4.8-4.8h-1.8c0.2-0.5,0.3-1.1,0.3-1.6c-0.3-5.9-3.6-11.3-8.8-14.2c-12.6-7.4-28.3-7.4-40.9,0
	c-5.2,2.9-8.5,8.3-8.8,14.2c0,0.5,0.1,1.1,0.3,1.6h-1.8c-2.7,0-4.8,2.2-4.8,4.8c0,2.7,2.2,4.8,4.8,4.8l0,0h1.8
	c-0.2,0.5-0.3,1.1-0.3,1.6v2.9c0,0.5,0.1,1.1,0.3,1.6h-1.8c-2.7,0.2-4.7,2.6-4.4,5.3c0.2,2.3,2.1,4.2,4.4,4.4h1.6v4.9
	c0,0.5,0,1,0,1.4c0.1,0.7,0.4,1.4,0.7,2.1l0,0c0.2,0.4,0.4,0.8,0.7,1.2l0,0c1.4,2.1,3.9,3.4,6.4,3.2h43c2.6,0.1,5-1.1,6.4-3.2l0,0
	c0.4-0.5,0.7-1.2,1-1.8c0.1-0.4,0.2-0.8,0.4-1.1c0.1-0.6,0.2-1.3,0.2-1.9v-4.8h1.6c2.7-0.3,4.7-2.6,4.4-5.3
	C-150.5,24.2-152.4,22.4-154.8,22.2L-154.8,22.2z M-216.4,12.9c-0.9,0-1.6-0.7-1.6-1.6c0-0.9,0.7-1.6,1.6-1.6h9.3
	c0.9-0.1,1.5-0.9,1.4-1.8l0,0c-0.1-0.7-0.6-1.3-1.4-1.5h-3.1c-0.9,0-1.6-0.7-1.6-1.6l0,0l0,0c0.3-4.8,3.1-9.2,7.4-11.5
	c11.6-6.7,26-6.7,37.6,0c4.2,2.3,6.9,6.7,7.2,11.5c0,0.9-0.7,1.6-1.6,1.6l0,0h-32.4c-0.9,0.1-1.5,0.9-1.4,1.8c0,0,0,0,0,0.1
	c0.1,0.7,0.6,1.3,1.4,1.4h38.8c0.9,0,1.6,0.7,1.6,1.6c0,0.9-0.7,1.6-1.6,1.6h-6.2c-1.7,0-3.4,0.5-4.9,1.4c-2,1.4-4.7,1.4-6.7,0
	c-3-1.9-6.8-1.9-9.7,0c-2,1.4-4.7,1.4-6.7,0c-3-1.9-6.8-1.9-9.7,0c-2,1.4-4.7,1.4-6.7,0c-1.4-1-3.1-1.5-4.9-1.4H-216.4z
	 M-159.4,17.7v2.9c0,0.9-0.7,1.6-1.6,1.6h-49.3c-0.9,0-1.5-0.7-1.6-1.6v-2.9c0-0.8,0.6-1.6,1.5-1.6c0,0,0,0,0.1,0l0,0
	c1.2,0,2.4,0.4,3.4,1c3,1.9,6.8,1.9,9.7,0c1-0.7,2.2-1.1,3.4-1c1.2,0,2.4,0.4,3.4,1c1.4,0.9,3.1,1.5,4.9,1.5c1.7,0,3.4-0.5,4.9-1.5
	c1-0.7,2.2-1.1,3.4-1c1.2,0,2.4,0.3,3.4,1c1.4,0.9,3.1,1.5,4.9,1.5c1.7,0,3.4-0.5,4.9-1.5c1-0.7,2.2-1.1,3.4-1
	C-160.1,16.1-159.4,16.8-159.4,17.7L-159.4,17.7z M-154.8,28.5h-6.2c-0.9,0.1-1.5,0.9-1.4,1.8c0,0,0,0,0,0.1
	c0.1,0.7,0.6,1.3,1.4,1.4h1.6v4.9c0.1,2.6-1.9,4.8-4.5,5h-43.3c-2.6-0.1-4.7-2.2-4.7-4.8V32h37.1c0.9-0.1,1.5-0.9,1.4-1.8l0,0
	c-0.1-0.7-0.7-1.2-1.4-1.3h-41.7c-0.9,0-1.6-0.8-1.6-1.6l0,0l0,0c0-0.9,0.6-1.6,1.5-1.6c0,0,0,0,0.1,0h61.6c0.9,0,1.6,0.7,1.6,1.6
	c0,0,0,0,0,0.1l0,0c0,0.9-0.7,1.6-1.6,1.6l0,0l0,0C-154.8,28.7-154.8,28.5-154.8,28.5z"/>
<path class="st3" d="M-176.1-2.1c1,0,1.8-0.7,1.9-1.7c0-1-0.8-1.8-1.8-1.8s-1.8,0.8-1.8,1.8l0,0l0,0C-177.8-2.9-177-2.1-176.1-2.1z"
	/>
<path class="st3" d="M-184.1,1.4c1,0,1.8-0.8,1.8-1.8s-0.8-1.8-1.8-1.8l0,0c-0.9,0-1.7,0.7-1.7,1.7c0,0,0,0,0,0.1l0,0
	C-185.8,0.6-185,1.4-184.1,1.4L-184.1,1.4z"/>
<path class="st3" d="M-195.3-2.3c1,0,1.8-0.8,1.8-1.8s-0.8-1.8-1.8-1.8c-0.9,0-1.7,0.7-1.7,1.7c0,0,0,0,0,0.1l0,0
	C-197.1-3.1-196.3-2.3-195.3-2.3L-195.3-2.3z"/>
<path class="st3" d="M-165.4,31.1L-165.4,31.1c-0.9,0.1-1.6,1-1.5,1.9c0,0,0,0,0,0.1c0,0.9,0.7,1.5,1.6,1.5s1.5-0.7,1.5-1.6
	c0-0.2,0-0.3-0.1-0.4C-164,31.8-164.6,31.2-165.4,31.1z"/>
<g class="st4">
	<path class="st5" d="M-372.8,37.2h-2.3c-2.5-0.1-4.4-2.1-4.6-4.6l0,0v-3.2c0.1-2.5,2.1-4.4,4.6-4.6h2.2v-1.6h-2.2
		c-2.5-0.1-4.4-2.1-4.6-4.6l0,0v-3.2c0.1-2.5,2.1-4.4,4.6-4.6h2.2v-0.7c0-0.6-0.2-1.2-0.5-1.8l-2.1-3.8c-1.8-3.2-2.3-6.9-1.3-10.5
		l1.1-4.1c0.3-1-0.2-2-1.1-2.3l-12.6-4.9c-0.5-0.3-1.1-0.3-1.6,0l-2,1.4c-3.2,2.2-7.5,2.2-10.6,0l-2-1.3c-0.5-0.3-1.1-0.3-1.6,0
		l-12.7,4.9c-0.9,0.4-1.4,1.4-1.1,2.3l1.1,4.1c0.9,3.5,0.5,7.3-1.3,10.5l-2.1,3.8c-0.3,0.5-0.5,1.1-0.5,1.8v0.6h2.3
		c2.5,0.1,4.4,2.1,4.6,4.6v3.2c-0.1,2.5-2.1,4.4-4.6,4.6h-2.4v1.6h2.4c2.5,0.1,4.4,2.1,4.6,4.6v3.2c-0.1,2.5-2.1,4.4-4.6,4.6h-2.5
		v6.1c0,0.7,0.5,1.4,1.3,1.4l1.9,0.3c14.9,1.9,30.1,1.9,45,0l1.9-0.3c0.7-0.1,1.3-0.7,1.2-1.4L-372.8,37.2z M-384.3,33.7
		c0,1.4-1.1,2.4-2.4,2.4h-23.2c-1.4,0-2.4-1.1-2.5-2.4V10.4c0-1.3,1.2-2.4,2.5-2.4h23.2c1.3,0,2.4,1,2.4,2.3l0,0l0,0V33.7z"/>
	<path class="st5" d="M-423.8,13.8h2.3c0.9,0,1.7,0.7,1.7,1.7v3.2c0,0.9-0.7,1.7-1.7,1.7h-2.3c-0.9,0-1.7-0.7-1.7-1.7v-3.2
		C-425.4,14.5-424.7,13.8-423.8,13.8z"/>
	<path class="st5" d="M-423.8,27.8h2.3c0.9,0,1.7,0.7,1.7,1.7v3.2c0,0.9-0.7,1.7-1.7,1.7h-2.3c-0.9,0-1.7-0.7-1.7-1.7v-3.2
		C-425.4,28.5-424.7,27.8-423.8,27.8z"/>
	<path class="st5" d="M-375,13.8h2.3c0.9,0,1.7,0.7,1.7,1.7v3.2c0,0.9-0.7,1.7-1.7,1.7h-2.3c-0.9,0-1.7-0.7-1.7-1.7v-3.2
		C-376.7,14.5-376,13.8-375,13.8z"/>
	<path class="st5" d="M-375,27.8h2.3c0.9,0,1.7,0.7,1.7,1.7v3.2c0,0.9-0.7,1.7-1.7,1.7h-2.3c-0.9,0-1.7-0.7-1.7-1.7v-3.2
		C-376.7,28.5-376,27.8-375,27.8z"/>
	<rect x="-408.8" y="11.6" class="st5" width="20.9" height="20.9"/>
</g>
<g class="st4">
	<path class="st6" d="M-475.1,21.2H-500v24.7h-15.1V21.2h-25v-14h24.9v-24.7h15.1V7.2h24.9v14H-475.1z"/>
</g>
<circle class="st7" cx="-373" cy="30.9" r="51.7"/>
<circle class="st7" cx="-106.1" cy="30.9" r="51.7"/>
<circle class="st7" cx="-240.3" cy="30.9" r="51.7"/>
<circle class="st7" cx="21.1" cy="30.9" r="51.7"/>
<circle class="st7" cx="-508.6" cy="30.9" r="51.7"/>
<image style="display:none;overflow:visible;" width="2009" height="2296" xlink:href="colete.png"  transform="matrix(2.820943e-02 0 0 2.820943e-02 -267.9158 -1.4698)">
</image>
<image style="display:none;overflow:visible;" width="2156" height="1702" xlink:href="comifa.png"  transform="matrix(3.604982e-02 0 0 3.604982e-02 -546.1064 -4.2212)">
</image>
<image style="overflow:visible;" width="2116" height="3294" xlink:href="energia.png"  transform="matrix(1.999027e-02 0 0 1.999027e-02 0 0)">
</image>
<image style="display:none;overflow:visible;" width="2256" height="2060" xlink:href="vida.png"  transform="matrix(3.077670e-02 0 0 3.077670e-02 -140.2794 1.224)">
</image>
<image style="display:none;overflow:visible;" width="1485" height="2113" xlink:href="agua.png"  transform="matrix(3.046646e-02 0 0 3.046646e-02 -397.0573 -1.2638)">
</image>
</svg>
