<svg id="Camada_1" data-name="Camada 1" xmlns="http://www.w3.org/2000/svg" viewBox="0 0 45.34 29.82"><defs><style>.cls-1{fill:#00f430;}</style></defs><path class="cls-1" d="M43.75,6.87a1.79,1.79,0,0,0-.51.07l-2,.53-2-4.93A4.44,4.44,0,0,0,35.47,0h-19A3.88,3.88,0,0,0,13,1.9a1.81,1.81,0,0,0-.14.66A8.34,8.34,0,0,0,1.68,10.42V12.6A2.56,2.56,0,0,0,0,15V27.26a2.56,2.56,0,0,0,2.56,2.56H17.5a2.56,2.56,0,0,0,2.56-2.56V24.81H37.54v2.45a2.06,2.06,0,0,0,2.05,2.06h2.69a2.06,2.06,0,0,0,2-2.06V17.45a15.25,15.25,0,0,0-1-4.9l-.32-.8h.25a2.05,2.05,0,0,0,2.05-2.06V8.54A1.58,1.58,0,0,0,43.75,6.87ZM12.44,20.55c-.08.65-.88,1.9-1,2.55-.14,1.33-.12,2.42-1.45,2.42s-1.3-1.09-1.45-2.42c-.07-.65-.88-1.9-1-2.55A2.32,2.32,0,0,1,10,18.13,2.32,2.32,0,0,1,12.44,20.55Zm3.83-8.11H3.79v-2a6.24,6.24,0,0,1,12.48,0ZM15.05,3.75a1.52,1.52,0,0,1,.12-.43l.06-.16A2.67,2.67,0,0,1,17.5,1.64h17a2.66,2.66,0,0,1,2.27,1.52l3.07,7.47a1,1,0,0,1-1,1.52h-20a2.6,2.6,0,0,1-.4,0v-1.7A8.36,8.36,0,0,0,15.05,3.75ZM40.38,20.08a.83.83,0,0,1-.83.82H33.73a.82.82,0,0,1-.82-.82v-2.8a.82.82,0,0,1,.82-.82h5.82a.83.83,0,0,1,.83.82Z"/></svg>