<?xml version="1.0" encoding="utf-8"?>
<!-- Generator: Adobe Illustrator 26.0.3, SVG Export Plug-In . SVG Version: 6.00 Build 0)  -->
<svg version="1.1" id="Camada_1" xmlns="http://www.w3.org/2000/svg" xmlns:xlink="http://www.w3.org/1999/xlink" x="0px" y="0px"
	 viewBox="0 0 380 470" style="enable-background:new 0 0 380 470;" xml:space="preserve">
<style type="text/css">
	.st0{fill:#FFFFFF;}
</style>
<path class="st0" d="M350,170h-40v-3.4c-6.7,0.2-13.3,0.3-20,0.3v3H90v-50c0-55.7,44.3-100,100-100c32,0,60.2,14.6,78.4,37.6
	c5.6-3.5,11.3-7,16.8-10.7C263.3,18.4,228.9,0,190,0C123.6,0,70,53.6,70,120v50H30c-17,0-30,13-30,30v240c0,17,13,30,30,30h320
	c17,0,30-13,30-30V200C380,183,367,170,350,170z M210,321.9V350c0,11-9,20-20,20s-20-9-20-20v-28.1c-6-5-10-12.9-10-21.9
	c0-17,13-30,30-30s30,13,30,30C220,309,216,316.9,210,321.9z"/>
</svg>
